<?xml version="1.0" encoding="utf-8"?>
<!-- Generator: Adobe Illustrator 24.0.0, SVG Export Plug-In . SVG Version: 6.00 Build 0)  -->
<svg version="1.1" id="Capa_1" xmlns="http://www.w3.org/2000/svg" xmlns:xlink="http://www.w3.org/1999/xlink" x="0px" y="0px"
	 viewBox="0 0 1920 1080" style="enable-background:new 0 0 1920 1080;" xml:space="preserve">
<style type="text/css">
	.st0{fill:#FFFFFF;}
</style>
<g>
	<g>
		<path class="st0" d="M633.21,325.82c-99.55,0-180.26,80.7-180.26,180.26s80.7,180.26,180.26,180.26
			c40.58,0,78.03-13.41,108.16-36.04c16.44,21.89,42.62,36.04,72.1,36.04h0V506.07C813.47,406.52,732.77,325.82,633.21,325.82z
			 M633.21,596.2c-49.78,0-90.13-40.35-90.13-90.13s40.35-90.13,90.13-90.13c49.78,0,90.13,40.35,90.13,90.13
			S682.99,596.2,633.21,596.2z"/>
	</g>
	<g>
		<path class="st0" d="M1376.36,687.29h71.15c10.48,0,18.98-8.5,18.98-18.98V443.34h-71.15c-10.48,0-18.98,8.5-18.98,18.98V687.29z"
			/>
	</g>
	<g>
		<circle class="st0" cx="1421.18" cy="371.84" r="45.06"/>
	</g>
	<g>
		<path class="st0" d="M852.17,687.29h71.15c10.48,0,18.98-8.5,18.98-18.98V147h-71.15c-10.48,0-18.98,8.5-18.98,18.98V687.29z"/>
	</g>
	<g>
		<path class="st0" d="M1158.61,325.82c-99.55,0-180.26,80.7-180.26,180.26s80.7,180.26,180.26,180.26
			c40.58,0,78.03-13.41,108.16-36.04c16.44,21.89,42.62,36.04,72.1,36.04h0V506.07C1338.86,406.52,1258.16,325.82,1158.61,325.82z
			 M1158.61,596.2c-49.78,0-90.13-40.35-90.13-90.13s40.35-90.13,90.13-90.13c49.78,0,90.13,40.35,90.13,90.13
			S1208.38,596.2,1158.61,596.2z"/>
	</g>
	<g>
		<g>
			<path class="st0" d="M1248.73,770.96c0-38.82-45.88-59.56-74.9-33.77c-73.6,65.4-170.52,105.13-276.72,105.13
				c-107.18,0-204.92-40.46-278.76-106.95c-28.96-26.08-75.15-5.42-75.15,33.55v0c0,12.74,5.38,24.91,14.85,33.44
				c89.81,80.87,208.69,130.09,339.06,130.09c129.17,0,247.06-48.32,336.57-127.87C1243.28,796.05,1248.73,783.8,1248.73,770.96
				L1248.73,770.96z"/>
		</g>
	</g>
</g>
</svg>
